<?xml version="1.0" encoding="UTF-8"?>
<svg id="Layer_1" xmlns="http://www.w3.org/2000/svg" xmlns:xlink="http://www.w3.org/1999/xlink" version="1.1" viewBox="0 0 593.76 367.5">
  <!-- Generator: Adobe Illustrator 30.2.1, SVG Export Plug-In . SVG Version: 2.1.1 Build 1)  -->
  <defs>
    <style>
      .st0, .st1, .st2 {
        fill: none;
      }

      .st3, .st4, .st5, .st6, .st7, .st8, .st9, .st10, .st11, .st12 {
        stroke: #fff;
        stroke-width: .5px;
      }

      .st3, .st12 {
        fill: #8172b3;
      }

      .st4, .st9 {
        fill: #55a868;
      }

      .st13 {
        opacity: .8;
        stroke: #ccc;
      }

      .st13, .st5, .st14, .st15, .st7, .st8, .st9, .st16, .st12, .st17 {
        isolation: isolate;
      }

      .st13, .st18 {
        fill: #fff;
      }

      .st5, .st7, .st8, .st9, .st12 {
        opacity: .55;
      }

      .st5, .st11 {
        fill: #c44e52;
      }

      .st6, .st8 {
        fill: #dd8452;
      }

      .st14 {
        font-size: 13.65px;
      }

      .st14, .st16, .st17 {
        font-family: ArialMT, Arial;
      }

      .st19 {
        clip-path: url(#clippath-10);
      }

      .st7, .st10 {
        fill: #4c72b0;
      }

      .st20 {
        clip-path: url(#clippath-1);
      }

      .st21 {
        clip-path: url(#clippath-3);
      }

      .st22 {
        clip-path: url(#clippath-4);
      }

      .st23 {
        clip-path: url(#clippath-2);
      }

      .st24 {
        clip-path: url(#clippath-7);
      }

      .st25 {
        clip-path: url(#clippath-6);
      }

      .st26 {
        clip-path: url(#clippath-9);
      }

      .st27 {
        clip-path: url(#clippath-8);
      }

      .st28 {
        clip-path: url(#clippath-5);
      }

      .st1 {
        stroke: #b0b0b0;
        stroke-opacity: .3;
      }

      .st1, .st29 {
        stroke-linejoin: round;
      }

      .st1, .st29, .st2 {
        stroke-width: .8px;
      }

      .st1, .st2 {
        stroke-linecap: square;
      }

      .st16 {
        font-size: 17.3px;
      }

      .st29, .st2 {
        stroke: #000;
      }

      .st17 {
        font-size: 16.39px;
      }

      .st30 {
        clip-path: url(#clippath);
      }
    </style>
    <clipPath id="clippath">
      <rect class="st0" x="66.31" y="27.61" width="444.27" height="266.15"/>
    </clipPath>
    <clipPath id="clippath-1">
      <rect class="st0" x="66.31" y="27.61" width="444.27" height="266.15"/>
    </clipPath>
    <clipPath id="clippath-2">
      <rect class="st0" x="66.31" y="27.61" width="444.27" height="266.15"/>
    </clipPath>
    <clipPath id="clippath-3">
      <rect class="st0" x="66.31" y="27.61" width="444.27" height="266.15"/>
    </clipPath>
    <clipPath id="clippath-4">
      <rect class="st0" x="66.31" y="27.61" width="444.27" height="266.15"/>
    </clipPath>
    <clipPath id="clippath-5">
      <rect class="st0" x="66.31" y="27.61" width="444.27" height="266.15"/>
    </clipPath>
    <clipPath id="clippath-6">
      <rect class="st0" x="66.31" y="27.61" width="444.27" height="266.15"/>
    </clipPath>
    <clipPath id="clippath-7">
      <rect class="st0" x="66.31" y="27.61" width="444.27" height="266.15"/>
    </clipPath>
    <clipPath id="clippath-8">
      <rect class="st0" x="66.31" y="27.61" width="444.27" height="266.15"/>
    </clipPath>
    <clipPath id="clippath-9">
      <rect class="st0" x="66.31" y="27.61" width="444.27" height="266.15"/>
    </clipPath>
    <clipPath id="clippath-10">
      <rect class="st0" x="66.31" y="27.61" width="444.27" height="266.15"/>
    </clipPath>
  </defs>
  <g id="patch_2">
    <path class="st18" d="M66.31,293.76h444.27V27.61H66.31v266.15Z"/>
  </g>
  <g id="patch_3">
    <g class="st30">
      <path class="st10" d="M86.51,293.76h30.08V85.17h-30.08v208.59Z"/>
    </g>
  </g>
  <g id="patch_4">
    <g class="st20">
      <path class="st6" d="M172.44,293.76h30.08v-154.56h-30.08v154.56Z"/>
    </g>
  </g>
  <g id="patch_5">
    <g class="st23">
      <path class="st4" d="M258.37,293.76h30.08v-152.79h-30.08v152.79Z"/>
    </g>
  </g>
  <g id="patch_6">
    <g class="st21">
      <path class="st11" d="M344.3,293.76h30.08V83.57h-30.08v210.19Z"/>
    </g>
  </g>
  <g id="patch_7">
    <g class="st22">
      <path class="st3" d="M430.23,293.76h30.08V123.49h-30.08v170.27Z"/>
    </g>
  </g>
  <g id="patch_8">
    <rect class="st0" x="66.31" y="27.61" width="444.27" height="266.15"/>
    <path class="st7" d="M116.58,293.76h30.08V89.66h-30.08v204.1Z"/>
  </g>
  <g id="patch_9">
    <rect class="st0" x="66.31" y="27.61" width="444.27" height="266.15"/>
    <path class="st8" d="M202.51,293.76h30.08V122.05h-30.08v171.71Z"/>
  </g>
  <g id="patch_10">
    <rect class="st0" x="66.31" y="27.61" width="444.27" height="266.15"/>
    <path class="st9" d="M288.45,293.76h30.08V115.48h-30.08v178.29Z"/>
  </g>
  <g id="patch_11">
    <rect class="st0" x="66.31" y="27.61" width="444.27" height="266.15"/>
    <path class="st5" d="M374.38,293.76h30.08V76.84h-30.08v216.93Z"/>
  </g>
  <g id="patch_12">
    <rect class="st0" x="66.31" y="27.61" width="444.27" height="266.15"/>
    <path class="st12" d="M460.31,293.76h30.08V104.41h-30.08v189.35Z"/>
  </g>
  <g class="st28">
    <path class="st1" d="M66.31,293.76h444.27"/>
  </g>
  <path id="m5607f780c7" class="st29" d="M66.31,293.76h-3.5"/>
  <g class="st25">
    <path class="st1" d="M66.31,243.07h444.27"/>
  </g>
  <path id="m5607f780c71" data-name="m5607f780c7" class="st29" d="M66.31,243.07h-3.5"/>
  <g id="line2d_10">
    <g class="st24">
      <path class="st1" d="M66.31,192.37h444.27"/>
    </g>
  </g>
  <g id="line2d_11">
    <path id="m5607f780c72" data-name="m5607f780c7" class="st29" d="M66.31,192.37h-3.5"/>
  </g>
  <g class="st27">
    <path class="st1" d="M66.31,141.67h444.27"/>
  </g>
  <path id="m5607f780c73" data-name="m5607f780c7" class="st29" d="M66.31,141.67h-3.5"/>
  <g class="st26">
    <path class="st1" d="M66.31,90.98h444.27"/>
  </g>
  <path id="m5607f780c74" data-name="m5607f780c7" class="st29" d="M66.31,90.98h-3.5"/>
  <g class="st19">
    <path class="st1" d="M66.31,40.28h444.27"/>
  </g>
  <path id="m5607f780c75" data-name="m5607f780c7" class="st29" d="M66.31,40.28h-3.5"/>
  <g id="patch_13">
    <path class="st2" d="M66.31,293.76V40.28"/>
  </g>
  <g id="patch_14">
    <path class="st2" d="M510.58,293.02V40.28"/>
  </g>
  <g id="patch_15">
    <path class="st2" d="M66.31,293.76h444.27"/>
  </g>
  <g id="patch_16">
    <path class="st2" d="M66.31,40.28h444.27"/>
  </g>
  <g>
    <path class="st13" d="M520.29,76.63h64.01c1.1,0,1.65-.45,1.65-1.35v-33.66c0-.9-.55-1.35-1.65-1.35h-64.01c-1.1,0-1.65.45-1.65,1.35v33.66c0,.9.55,1.35,1.65,1.35Z"/>
    <g>
      <path id="DejaVuSans-46" d="M522.43,43.19h4.49v.89h-3.43v2.3h3.1v.89h-3.1v3.73h-1.06v-7.81Z"/>
      <path id="DejaVuSans-65" d="M532.98,47.83v.47h-4.43c.04.66.24,1.17.6,1.52.36.35.86.52,1.49.52.37,0,.73-.05,1.08-.14s.69-.23,1.03-.41v.91c-.35.15-.7.26-1.06.33s-.73.12-1.1.12c-.94,0-1.68-.27-2.22-.82-.55-.54-.82-1.28-.82-2.21s.26-1.72.78-2.28c.52-.56,1.22-.85,2.1-.85.79,0,1.41.25,1.87.76.46.51.69,1.2.69,2.07ZM532.02,47.55c0-.53-.15-.95-.44-1.26-.29-.31-.67-.47-1.14-.47-.54,0-.97.15-1.29.46s-.51.73-.56,1.28h3.43Z"/>
      <path id="DejaVuSans-61" d="M537.22,48.06c-.78,0-1.32.09-1.62.27s-.45.48-.45.91c0,.34.11.61.34.81.23.2.53.3.92.3.53,0,.96-.19,1.29-.57s.48-.88.48-1.51v-.21h-.96ZM539.14,47.66v3.34h-.96v-.89c-.22.35-.49.62-.82.79-.33.17-.73.25-1.2.25-.6,0-1.08-.17-1.43-.51-.35-.34-.53-.79-.53-1.35,0-.66.22-1.16.66-1.49.44-.33,1.1-.5,1.98-.5h1.35v-.1c0-.44-.15-.79-.44-1.03s-.7-.36-1.23-.36c-.33,0-.66.04-.98.12-.32.08-.62.2-.91.36v-.89c.35-.14.69-.24,1.02-.3.33-.07.65-.1.97-.1.85,0,1.48.22,1.9.66.42.44.63,1.1.63,2Z"/>
      <path id="DejaVuSans-74" d="M542.08,43.48v1.66h1.98v.75h-1.98v3.18c0,.48.07.78.2.92s.4.2.8.2h.99v.81h-.99c-.74,0-1.26-.14-1.54-.42-.28-.28-.42-.78-.42-1.52v-3.18h-.71v-.75h.71v-1.66h.97Z"/>
      <path id="DejaVuSans-75" d="M545.23,48.69v-3.55h.96v3.51c0,.55.11.97.32,1.25.22.28.54.42.97.42.52,0,.93-.17,1.23-.5.3-.33.45-.78.45-1.36v-3.32h.96v5.86h-.96v-.9c-.23.36-.5.62-.81.79-.31.17-.67.26-1.08.26-.67,0-1.18-.21-1.53-.63-.35-.42-.52-1.03-.52-1.84ZM547.65,45h0Z"/>
      <path id="DejaVuSans-72" d="M555.52,46.04c-.11-.06-.23-.11-.35-.14-.13-.03-.27-.05-.42-.05-.54,0-.96.18-1.25.53s-.44.86-.44,1.53v3.09h-.97v-5.86h.97v.91c.2-.36.47-.62.79-.79.32-.17.72-.26,1.18-.26.07,0,.14,0,.22.01.08,0,.17.02.27.04v.99Z"/>
      <path id="DejaVuSans-651" data-name="DejaVuSans-65" d="M561.3,47.83v.47h-4.43c.04.66.24,1.17.6,1.52.36.35.86.52,1.49.52.37,0,.73-.05,1.08-.14s.69-.23,1.03-.41v.91c-.35.15-.7.26-1.06.33s-.73.12-1.1.12c-.94,0-1.68-.27-2.22-.82-.55-.54-.82-1.28-.82-2.21s.26-1.72.78-2.28c.52-.56,1.22-.85,2.1-.85.79,0,1.41.25,1.87.76.46.51.69,1.2.69,2.07ZM560.34,47.55c0-.53-.15-.95-.44-1.26-.29-.31-.67-.47-1.14-.47-.54,0-.97.15-1.29.46s-.51.73-.56,1.28h3.43Z"/>
      <path id="DejaVuSans-73" d="M566.61,45.32v.91c-.27-.14-.55-.24-.85-.31-.29-.07-.6-.11-.91-.11-.48,0-.84.07-1.08.22-.24.15-.36.37-.36.66,0,.22.09.4.26.53s.51.25,1.03.36l.33.07c.68.15,1.17.35,1.46.62s.43.64.43,1.12c0,.54-.22.98-.65,1.29-.43.32-1.02.48-1.78.48-.31,0-.64-.03-.98-.09-.34-.06-.7-.15-1.08-.27v-.99c.36.19.71.32,1.05.42.34.09.69.14,1.03.14.45,0,.8-.08,1.04-.23.24-.16.37-.37.37-.66,0-.26-.09-.46-.26-.6-.18-.14-.56-.27-1.16-.4l-.33-.08c-.6-.13-1.03-.32-1.29-.58-.26-.26-.4-.62-.4-1.07,0-.55.2-.98.59-1.28.39-.3.95-.45,1.66-.45.35,0,.69.03,1,.08.31.05.6.13.87.23Z"/>
    </g>
    <path class="st10" d="M522.61,63.3h15.26v-5.34h-15.26v5.34Z"/>
    <g>
      <path id="DejaVuSans-66" d="M545.01,56.17v.67h-.77c-.29,0-.49.06-.6.18-.11.12-.17.33-.17.63v.43h1.33v.63h-1.33v4.29h-.81v-4.29h-.77v-.63h.77v-.34c0-.55.13-.95.38-1.2.26-.25.66-.38,1.21-.38h.77Z"/>
      <path id="DejaVuSans-6c" d="M545.69,56.17h.81v6.84h-.81v-6.84Z"/>
      <path id="DejaVuSans-611" data-name="DejaVuSans-61" d="M550.43,60.54c-.65,0-1.11.07-1.36.22s-.38.4-.38.77c0,.29.09.51.28.68.19.17.45.25.77.25.45,0,.81-.16,1.08-.48s.41-.74.41-1.27v-.18h-.8ZM552.04,60.21v2.81h-.81v-.75c-.18.3-.41.52-.69.66-.28.14-.61.21-1.01.21-.5,0-.9-.14-1.2-.42-.3-.28-.45-.66-.45-1.14,0-.55.19-.97.56-1.25.37-.28.92-.42,1.66-.42h1.14v-.08c0-.37-.12-.66-.37-.86s-.59-.31-1.03-.31c-.28,0-.56.03-.82.1-.27.07-.52.17-.77.3v-.75c.3-.11.58-.2.86-.26.28-.06.55-.09.81-.09.71,0,1.24.18,1.6.55.35.37.53.93.53,1.68Z"/>
      <path id="DejaVuSans-741" data-name="DejaVuSans-74" d="M554.51,56.69v1.4h1.67v.63h-1.67v2.67c0,.4.05.66.16.77s.33.17.67.17h.83v.68h-.83c-.62,0-1.06-.12-1.29-.35-.24-.23-.36-.66-.36-1.27v-2.67h-.59v-.63h.59v-1.4h.81Z"/>
    </g>
    <path class="st7" d="M522.61,74.5h15.26v-5.34h-15.26v5.34Z"/>
    <g>
      <path id="DejaVuSans-742" data-name="DejaVuSans-74" d="M543.06,68.66v1.36h1.62v.61h-1.62v2.6c0,.39.05.64.16.75s.32.17.65.17h.81v.66h-.81c-.61,0-1.03-.11-1.26-.34-.23-.23-.35-.64-.35-1.24v-2.6h-.58v-.61h.58v-1.36h.79Z"/>
      <path id="DejaVuSans-652" data-name="DejaVuSans-65" d="M549.81,72.22v.38h-3.62c.03.54.2.95.49,1.24.29.28.7.43,1.22.43.3,0,.59-.04.88-.11s.57-.19.85-.33v.74c-.28.12-.57.21-.87.27s-.6.09-.9.09c-.76,0-1.37-.22-1.82-.67-.45-.45-.67-1.05-.67-1.81s.21-1.41.63-1.86c.42-.46.99-.69,1.71-.69.64,0,1.15.21,1.53.62.37.41.56.98.56,1.69ZM549.03,71.99c0-.43-.13-.77-.36-1.03-.24-.26-.55-.39-.93-.39-.44,0-.79.12-1.05.37s-.42.6-.46,1.05h2.8Z"/>
      <path id="DejaVuSans-6d" d="M554.83,70.94c.2-.35.43-.61.71-.78s.6-.25.97-.25c.5,0,.88.17,1.15.52.27.35.41.84.41,1.49v2.89h-.79v-2.86c0-.46-.08-.8-.24-1.02-.16-.22-.41-.33-.74-.33-.41,0-.73.14-.97.41-.24.27-.35.64-.35,1.11v2.71h-.79v-2.86c0-.46-.08-.8-.24-1.02s-.41-.33-.75-.33c-.4,0-.72.14-.96.41-.24.27-.35.64-.35,1.11v2.71h-.79v-4.79h.79v.74c.18-.29.39-.51.65-.65s.55-.21.89-.21.64.09.89.27c.24.18.42.43.54.77Z"/>
      <path id="DejaVuSans-70" d="M560.39,74.09v2.54h-.79v-6.61h.79v.73c.17-.28.37-.5.63-.63.25-.14.55-.21.9-.21.58,0,1.05.23,1.42.69.36.46.55,1.07.55,1.82s-.18,1.36-.55,1.82c-.36.46-.84.69-1.42.69-.35,0-.65-.07-.9-.21-.25-.14-.46-.35-.63-.63ZM563.07,72.42c0-.58-.12-1.03-.36-1.36s-.57-.49-.98-.49-.74.16-.98.49-.36.78-.36,1.36.12,1.03.36,1.36c.24.33.57.49.98.49s.74-.16.98-.49c.24-.33.36-.78.36-1.36Z"/>
      <path id="DejaVuSans-6f" d="M567.04,70.58c-.42,0-.75.16-1,.49s-.37.78-.37,1.35.12,1.02.37,1.35c.24.33.58.49,1,.49s.75-.17,1-.5c.25-.33.37-.78.37-1.35s-.12-1.02-.37-1.35c-.24-.33-.58-.5-1-.5ZM567.04,69.91c.68,0,1.22.22,1.61.67.39.44.59,1.06.59,1.85s-.2,1.4-.59,1.85c-.39.45-.93.67-1.61.67s-1.22-.22-1.61-.67c-.39-.45-.58-1.06-.58-1.85s.19-1.4.58-1.85c.39-.45.93-.67,1.61-.67Z"/>
      <path id="DejaVuSans-721" data-name="DejaVuSans-72" d="M573.32,70.76c-.09-.05-.18-.09-.29-.11-.1-.02-.22-.04-.34-.04-.45,0-.79.14-1.02.43s-.36.7-.36,1.25v2.52h-.79v-4.79h.79v.74c.17-.29.38-.51.65-.65.27-.14.59-.21.97-.21.05,0,.11,0,.18.01.07,0,.14.02.22.03v.81Z"/>
      <path id="DejaVuSans-612" data-name="DejaVuSans-61" d="M576.32,72.41c-.64,0-1.08.07-1.32.22s-.37.39-.37.74c0,.28.09.5.28.66.18.16.43.24.75.24.44,0,.79-.15,1.05-.46s.4-.72.4-1.23v-.18h-.78ZM577.89,72.08v2.73h-.79v-.73c-.18.29-.4.5-.67.64-.27.14-.6.21-.98.21-.49,0-.88-.14-1.17-.41-.29-.28-.43-.64-.43-1.11,0-.54.18-.94.54-1.22.36-.27.9-.41,1.61-.41h1.1v-.08c0-.36-.12-.64-.36-.84s-.57-.3-1-.3c-.27,0-.54.03-.8.1-.26.07-.51.16-.75.3v-.73c.29-.11.57-.19.84-.25.27-.06.53-.08.79-.08.69,0,1.21.18,1.55.54.34.36.51.9.51,1.63Z"/>
      <path id="DejaVuSans-6c1" data-name="DejaVuSans-6c" d="M579.51,68.16h.79v6.65h-.79v-6.65Z"/>
    </g>
  </g>
  <g class="st15">
    <text class="st17" transform="translate(48.69 298.19)"><tspan x="0" y="0">0</tspan></text>
  </g>
  <g class="st15">
    <text class="st17" transform="translate(37.18 248.66)"><tspan x="0" y="0">0.2</tspan></text>
  </g>
  <g class="st15">
    <text class="st17" transform="translate(36.86 197.25)"><tspan x="0" y="0">0.4</tspan></text>
  </g>
  <g class="st15">
    <text class="st17" transform="translate(37.45 145.48)"><tspan x="0" y="0">0.6</tspan></text>
  </g>
  <g class="st15">
    <text class="st17" transform="translate(38.04 96.86)"><tspan x="0" y="0">0.8</tspan></text>
  </g>
  <g class="st15">
    <text class="st17" transform="translate(37.63 47.29)"><tspan x="0" y="0">1.0</tspan></text>
  </g>
  <g class="st15">
    <text class="st16" transform="translate(21.93 218.82) rotate(-90)"><tspan x="0" y="0">Test Accuracy</tspan></text>
  </g>
  <g class="st15">
    <text class="st14" transform="translate(94.57 327.79) rotate(-30)"><tspan x="0" y="0">Logistic</tspan></text>
  </g>
  <g class="st15">
    <text class="st14" transform="translate(172.54 341.34) rotate(-30)"><tspan x="0" y="0">Linear SVM</tspan></text>
  </g>
  <g class="st15">
    <text class="st14" transform="translate(272.97 322.46) rotate(-30)"><tspan x="0" y="0">Ridge</tspan></text>
  </g>
  <g class="st15">
    <text class="st14" transform="translate(361.78 322.46) rotate(-30)"><tspan x="0" y="0">SVM</tspan></text>
  </g>
  <g class="st15">
    <text class="st14" transform="translate(450.84 322.46) rotate(-30)"><tspan x="0" y="0">MLP</tspan></text>
  </g>
  <g class="st15">
    <text class="st16" transform="translate(238.76 355.52)"><tspan x="0" y="0">Model Type</tspan></text>
  </g>
  <g class="st15">
    <text class="st16" transform="translate(217.55 30.44)"><tspan x="0" y="0">Split: Block Aware</tspan></text>
  </g>
</svg>