<?xml version="1.0" encoding="UTF-8"?>
<svg id="Layer_1" xmlns="http://www.w3.org/2000/svg" xmlns:xlink="http://www.w3.org/1999/xlink" version="1.1" viewBox="0 0 640.46 351.91">
  <!-- Generator: Adobe Illustrator 30.2.1, SVG Export Plug-In . SVG Version: 2.1.1 Build 1)  -->
  <defs>
    <style>
      .st0, .st1, .st2, .st3 {
        fill: none;
      }

      .st4, .st5, .st6, .st7, .st8, .st9, .st10, .st11, .st12, .st13, .st2, .st14, .st15 {
        stroke: #fff;
      }

      .st4, .st5, .st6, .st7, .st8, .st9, .st11, .st12, .st13, .st2, .st14, .st15 {
        stroke-width: .5px;
      }

      .st4, .st16 {
        fill: #8172b3;
      }

      .st17, .st5 {
        fill: #55a868;
      }

      .st18 {
        opacity: .8;
        stroke: #ccc;
      }

      .st18, .st19, .st20, .st21, .st22 {
        isolation: isolate;
      }

      .st18, .st10, .st23 {
        fill: #fff;
      }

      .st6 {
        fill: url(#h1118e695371);
      }

      .st7 {
        fill: url(#he711ab0094);
      }

      .st8, .st24 {
        fill: #dd8452;
      }

      .st19 {
        font-size: 13.65px;
      }

      .st19, .st21, .st22 {
        font-family: ArialMT, Arial;
      }

      .st9 {
        fill: url(#h1118e69537);
      }

      .st25, .st15 {
        fill: #c44e52;
      }

      .st26 {
        clip-path: url(#clippath-1);
      }

      .st27 {
        clip-path: url(#clippath-3);
      }

      .st28 {
        clip-path: url(#clippath-4);
      }

      .st29 {
        clip-path: url(#clippath-2);
      }

      .st30 {
        clip-path: url(#clippath-7);
      }

      .st31 {
        clip-path: url(#clippath-6);
      }

      .st32 {
        clip-path: url(#clippath-9);
      }

      .st33 {
        clip-path: url(#clippath-8);
      }

      .st34 {
        clip-path: url(#clippath-5);
      }

      .st11, .st35 {
        fill: #4c72b0;
      }

      .st12 {
        fill: url(#h31c60da1ef);
      }

      .st1 {
        stroke: #b0b0b0;
        stroke-opacity: .3;
      }

      .st1, .st36 {
        stroke-linejoin: round;
      }

      .st1, .st36, .st3 {
        stroke-width: .8px;
      }

      .st1, .st3 {
        stroke-linecap: square;
      }

      .st13 {
        fill: url(#he6286a7c14);
      }

      .st21 {
        font-size: 17.3px;
      }

      .st36, .st3 {
        stroke: #000;
      }

      .st14 {
        fill: url(#h8db2e02129);
      }

      .st22 {
        font-size: 16.39px;
      }

      .st37 {
        clip-path: url(#clippath);
      }
    </style>
    <pattern id="h8db2e02129" x="0" y="0" width="72" height="72" patternTransform="translate(-3863.32 -11741.65) scale(.75 -.75)" patternUnits="userSpaceOnUse" viewBox="0 0 72 72">
      <g>
        <rect class="st0" width="72" height="72"/>
        <g>
          <rect class="st0" width="72" height="72"/>
          <rect class="st16" width="73" height="73"/>
          <path class="st10" d="M-36,36L36-36M-30,42L42-30M-24,48L48-24M-18,54L54-18M-12,60L60-12M-6,66L66-6M0,72L72,0M6,78L78,6M12,84L84,12M18,90L90,18M24,96L96,24M30,102L102,30M36,108L108,36"/>
        </g>
      </g>
    </pattern>
    <pattern id="he711ab0094" x="0" y="0" width="72" height="72" patternTransform="translate(-3893.35 -13990.35) scale(.75 -.89)" patternUnits="userSpaceOnUse" viewBox="0 0 72 72">
      <g>
        <rect class="st0" width="72" height="72"/>
        <g>
          <rect class="st0" width="72" height="72"/>
          <rect class="st25" width="73" height="73"/>
          <path class="st10" d="M-36,36L36-36M-30,42L42-30M-24,48L48-24M-18,54L54-18M-12,60L60-12M-6,66L66-6M0,72L72,0M6,78L78,6M12,84L84,12M18,90L90,18M24,96L96,24M30,102L102,30M36,108L108,36"/>
        </g>
      </g>
    </pattern>
    <pattern id="he6286a7c14" x="0" y="0" width="72" height="72" patternTransform="translate(-3922.73 -10463.74) scale(.75 -.68)" patternUnits="userSpaceOnUse" viewBox="0 0 72 72">
      <g>
        <rect class="st0" width="72" height="72"/>
        <g>
          <rect class="st0" width="72" height="72"/>
          <rect class="st17" width="73" height="73"/>
          <path class="st10" d="M-36,36L36-36M-30,42L42-30M-24,48L48-24M-18,54L54-18M-12,60L60-12M-6,66L66-6M0,72L72,0M6,78L78,6M12,84L84,12M18,90L90,18M24,96L96,24M30,102L102,30M36,108L108,36"/>
        </g>
      </g>
    </pattern>
    <pattern id="h31c60da1ef" x="0" y="0" width="72" height="72" patternTransform="translate(-3952.47 -10096.25) scale(.75 -.66)" patternUnits="userSpaceOnUse" viewBox="0 0 72 72">
      <g>
        <rect class="st0" width="72" height="72"/>
        <g>
          <rect class="st0" width="72" height="72"/>
          <rect class="st24" width="73" height="73"/>
          <path class="st10" d="M-36,36L36-36M-30,42L42-30M-24,48L48-24M-18,54L54-18M-12,60L60-12M-6,66L66-6M0,72L72,0M6,78L78,6M12,84L84,12M18,90L90,18M24,96L96,24M30,102L102,30M36,108L108,36"/>
        </g>
      </g>
    </pattern>
    <pattern id="h1118e69537" x="0" y="0" width="72" height="72" patternTransform="translate(-3982.17 -14059.21) scale(.75 -.89)" patternUnits="userSpaceOnUse" viewBox="0 0 72 72">
      <g>
        <rect class="st0" width="72" height="72"/>
        <g>
          <rect class="st0" width="72" height="72"/>
          <rect class="st35" width="73" height="73"/>
          <path class="st10" d="M-36,36L36-36M-30,42L42-30M-24,48L48-24M-18,54L54-18M-12,60L60-12M-6,66L66-6M0,72L72,0M6,78L78,6M12,84L84,12M18,90L90,18M24,96L96,24M30,102L102,30M36,108L108,36"/>
        </g>
      </g>
    </pattern>
    <clipPath id="clippath">
      <rect class="st0" x="63" y="16.32" width="441.86" height="259.25"/>
    </clipPath>
    <clipPath id="clippath-1">
      <rect class="st0" x="63" y="16.32" width="441.86" height="259.25"/>
    </clipPath>
    <clipPath id="clippath-2">
      <rect class="st0" x="63" y="16.32" width="441.86" height="259.25"/>
    </clipPath>
    <clipPath id="clippath-3">
      <rect class="st0" x="63" y="16.32" width="441.86" height="259.25"/>
    </clipPath>
    <clipPath id="clippath-4">
      <rect class="st0" x="63" y="16.32" width="441.86" height="259.25"/>
    </clipPath>
    <clipPath id="clippath-5">
      <rect class="st0" x="63" y="16.32" width="441.86" height="259.25"/>
    </clipPath>
    <clipPath id="clippath-6">
      <rect class="st0" x="63" y="16.32" width="441.86" height="259.25"/>
    </clipPath>
    <clipPath id="clippath-7">
      <rect class="st0" x="63" y="16.32" width="441.86" height="259.25"/>
    </clipPath>
    <clipPath id="clippath-8">
      <rect class="st0" x="63" y="16.32" width="441.86" height="259.25"/>
    </clipPath>
    <clipPath id="clippath-9">
      <rect class="st0" x="63" y="16.32" width="441.86" height="259.25"/>
    </clipPath>
    <pattern id="h1118e695371" x="0" y="0" width="72" height="72" patternTransform="translate(-1517.97 -14438.45) scale(.91 -.91)" patternUnits="userSpaceOnUse" viewBox="0 0 72 72">
      <g>
        <rect class="st0" width="72" height="72"/>
        <g>
          <rect class="st0" width="72" height="72"/>
          <rect class="st35" width="73" height="73"/>
          <path class="st10" d="M-36,36L36-36M-30,42L42-30M-24,48L48-24M-18,54L54-18M-12,60L60-12M-6,66L66-6M0,72L72,0M6,78L78,6M12,84L84,12M18,90L90,18M24,96L96,24M30,102L102,30M36,108L108,36"/>
        </g>
      </g>
    </pattern>
  </defs>
  <g id="patch_2">
    <path class="st23" d="M63,275.58h441.86V16.32H63v259.25h0Z"/>
  </g>
  <path class="st14" d="M417.83,275.65h33.47V100.19h-33.47v175.46Z"/>
  <path class="st7" d="M333.82,275.72h33.47V69.03h-33.47v206.69h0Z"/>
  <path class="st13" d="M250.47,275.61h33.47V117.99h-33.47v157.62Z"/>
  <path class="st12" d="M166.77,276.05h33.47V121.44h-33.47v154.62Z"/>
  <path class="st9" d="M83.09,276.47h33.47V69.03h-33.47v207.44h0Z"/>
  <g id="patch_3">
    <rect class="st0" x="96.55" y="16.32" width="441.86" height="259.25"/>
    <path class="st11" d="M116.64,275.58h33.47V72.4h-33.47v203.18Z"/>
  </g>
  <g id="patch_4">
    <rect class="st0" x="96.55" y="16.32" width="441.86" height="259.25"/>
    <path class="st8" d="M200.32,275.58h33.47V125.03h-33.47v150.55h0Z"/>
  </g>
  <g id="patch_5">
    <rect class="st0" x="96.55" y="16.32" width="441.86" height="259.25"/>
    <path class="st5" d="M284.01,275.58h33.47V126.75h-33.47v148.83h0Z"/>
  </g>
  <g id="patch_6">
    <rect class="st0" x="96.55" y="20.24" width="441.86" height="255.33"/>
    <path class="st15" d="M367.7,275.58h33.47V73.94h-33.47v201.64h0Z"/>
  </g>
  <g id="patch_7">
    <rect class="st0" x="96.55" y="16.32" width="441.86" height="259.25"/>
    <path class="st4" d="M451.38,275.58h33.47V109.72h-33.47v165.86h0Z"/>
  </g>
  <g id="patch_8">
    <g class="st37">
      <path class="st2" d="M116.56,275.58h33.47V68.14h-33.47v207.44h0Z"/>
    </g>
  </g>
  <g id="patch_9">
    <g class="st26">
      <path class="st2" d="M200.25,275.58h33.47V124.22h-33.47v151.36h0Z"/>
    </g>
  </g>
  <g id="patch_10">
    <g class="st29">
      <path class="st2" d="M283.94,275.58h33.47V117.96h-33.47v157.62Z"/>
    </g>
  </g>
  <g id="patch_11">
    <g class="st27">
      <path class="st2" d="M367.62,275.58h33.47V69.78h-33.47v205.8h0Z"/>
    </g>
  </g>
  <g id="patch_12">
    <rect class="st0" x="63" y="16.32" width="441.86" height="259.25"/>
    <path class="st2" d="M451.31,275.58h33.47V100.26h-33.47v175.31h0Z"/>
  </g>
  <g class="st28">
    <path class="st1" d="M63,275.58h441.86"/>
  </g>
  <path id="m054249b400" class="st36" d="M63,275.58h-3.19"/>
  <g class="st34">
    <path class="st1" d="M63,226.2h441.86"/>
  </g>
  <path id="m054249b4001" class="st36" d="M63,226.2h-3.19"/>
  <g class="st31">
    <path class="st1" d="M63,176.81h441.86"/>
  </g>
  <path id="m054249b4002" class="st36" d="M63,176.81h-3.19"/>
  <g class="st30">
    <path class="st1" d="M63,127.43h441.86"/>
  </g>
  <path id="m054249b4003" class="st36" d="M63,127.43h-3.19"/>
  <g id="line2d_14">
    <g class="st33">
      <path class="st1" d="M63,78.05h441.86"/>
    </g>
  </g>
  <g id="line2d_15">
    <path id="m054249b4004" class="st36" d="M63,78.05h-3.19"/>
  </g>
  <g class="st32">
    <path class="st1" d="M63,28.67h441.86"/>
  </g>
  <path id="m054249b4005" class="st36" d="M63,28.67h-3.19"/>
  <g id="patch_13">
    <path class="st3" d="M63,275.58V28.67"/>
  </g>
  <g id="patch_14">
    <path class="st3" d="M504.87,275.58V27.77"/>
  </g>
  <g id="patch_15">
    <path class="st3" d="M63,275.58h441.86"/>
  </g>
  <g id="patch_16">
    <path class="st3" d="M63.08,27.77h441.86"/>
  </g>
  <path class="st18" d="M513.27,73.05h91.86c1.31,0,1.96-.61,1.96-1.83V29.61c0-1.22-.65-1.83-1.96-1.83h-91.86c-1.31,0-1.96.61-1.96,1.83v41.61c0,1.22.65,1.83,1.96,1.83Z"/>
  <g id="text_14">
    <g>
      <path id="DejaVuSans-53" d="M552.17,32.06v1.1c-.46-.21-.89-.36-1.3-.46s-.8-.15-1.18-.15c-.66,0-1.17.12-1.52.36-.36.24-.54.58-.54,1.02,0,.37.12.65.36.84s.69.34,1.35.45l.73.14c.9.16,1.57.44,2,.85s.64.94.64,1.62c0,.81-.29,1.42-.87,1.84-.58.42-1.43.63-2.55.63-.42,0-.87-.04-1.35-.13s-.97-.22-1.48-.4v-1.16c.49.26.97.45,1.44.58.47.13.93.19,1.39.19.69,0,1.22-.13,1.6-.38s.56-.62.56-1.09c0-.41-.13-.73-.4-.96s-.71-.4-1.33-.52l-.74-.13c-.9-.17-1.55-.43-1.96-.79-.4-.36-.6-.86-.6-1.49,0-.74.28-1.32.84-1.74.56-.42,1.32-.64,2.3-.64.42,0,.85.04,1.28.11.44.07.88.18,1.33.32h0Z"/>
      <path id="DejaVuSans-70" d="M555.61,39.19v3.32h-1.11v-8.64h1.11v.95c.23-.37.52-.65.88-.83.35-.18.78-.27,1.27-.27.81,0,1.48.3,1.98.9.51.6.76,1.4.76,2.38s-.25,1.78-.76,2.38c-.51.6-1.17.9-1.98.9-.49,0-.91-.09-1.27-.27-.35-.18-.64-.46-.88-.83h0ZM559.36,37.01c0-.76-.17-1.35-.5-1.78s-.79-.65-1.37-.65-1.04.22-1.38.65-.5,1.02-.5,1.78.17,1.35.5,1.78.79.65,1.38.65,1.04-.22,1.37-.65.5-1.02.5-1.78Z"/>
      <path id="DejaVuSans-6c" d="M562.33,31.44h1.1v8.69h-1.1v-8.69Z"/>
      <path id="DejaVuSans-69" d="M565.73,33.87h1.1v6.26h-1.1s0-6.26,0-6.26ZM565.73,31.44h1.1v1.3h-1.1v-1.3Z"/>
      <path id="DejaVuSans-74" d="M570.23,32.1v1.78h2.27v.8h-2.27v3.4c0,.51.07.84.22.98s.45.22.91.22h1.13v.86h-1.13c-.85,0-1.44-.15-1.76-.44-.32-.3-.48-.84-.48-1.62v-3.4h-.81v-.8h.81v-1.78h1.11Z"/>
    </g>
  </g>
  <g id="patch_18">
    <path class="st11" d="M515.23,67.42h19.61v-6.41h-19.61v6.41Z"/>
  </g>
  <g id="text_15">
    <g>
      <path id="DejaVuSans-62" d="M546.3,65.19c0-.6-.13-1.08-.4-1.42s-.63-.52-1.1-.52-.83.17-1.1.52-.4.82-.4,1.42.13,1.08.4,1.42c.27.34.63.52,1.1.52s.83-.17,1.1-.52c.27-.34.4-.82.4-1.42ZM543.3,63.45c.19-.3.42-.52.7-.66s.62-.22,1.01-.22c.65,0,1.18.24,1.59.72.41.48.61,1.12.61,1.9s-.2,1.42-.61,1.91c-.41.48-.94.72-1.59.72-.39,0-.73-.07-1.01-.22-.28-.14-.52-.37-.7-.66v.75h-.89v-6.96h.89v2.71h0Z"/>
      <path id="DejaVuSans-6c1" d="M548.68,60.74h.88v6.96h-.88v-6.96Z"/>
      <path id="DejaVuSans-6f" d="M553.48,63.26c-.47,0-.85.17-1.12.52s-.41.82-.41,1.41.14,1.07.41,1.41c.27.34.65.52,1.12.52s.84-.17,1.12-.52c.27-.35.41-.82.41-1.41s-.14-1.06-.41-1.41c-.27-.35-.65-.52-1.12-.52ZM553.48,62.57c.77,0,1.37.23,1.8.7.44.46.66,1.11.66,1.93s-.22,1.46-.66,1.93-1.04.7-1.8.7-1.37-.23-1.81-.7-.65-1.11-.65-1.93.22-1.47.65-1.93c.44-.47,1.04-.7,1.81-.7Z"/>
      <path id="DejaVuSans-63" d="M561.26,62.88v.77c-.25-.13-.5-.23-.75-.29s-.5-.1-.76-.1c-.57,0-1.02.17-1.33.51-.32.34-.47.81-.47,1.42s.16,1.09.47,1.42c.32.34.76.51,1.33.51.26,0,.51-.03.76-.1s.5-.16.75-.29v.76c-.25.11-.5.19-.76.24-.26.05-.54.08-.84.08-.81,0-1.45-.24-1.93-.71-.47-.47-.71-1.11-.71-1.92s.24-1.46.72-1.93,1.14-.7,1.98-.7c.27,0,.54.03.79.08.26.05.51.13.75.23v.02Z"/>
      <path id="DejaVuSans-6b" d="M562.76,60.74h.89v4.11l2.63-2.16h1.12l-2.84,2.34,2.96,2.66h-1.15l-2.73-2.44v2.44h-.89v-6.96h.01Z"/>
      <path id="DejaVuSans-20" d="M567.55,67.69"/>
      <path id="DejaVuSans-61" d="M574.03,65.18c-.71,0-1.21.08-1.48.23s-.41.41-.41.78c0,.29.1.52.31.7.21.17.49.26.84.26.49,0,.88-.16,1.18-.48s.44-.75.44-1.29v-.18h-.88v-.02ZM575.78,64.84v2.86h-.88v-.76c-.2.3-.45.53-.75.67s-.67.22-1.1.22c-.55,0-.99-.14-1.31-.43s-.49-.67-.49-1.16c0-.56.2-.99.61-1.27.4-.29,1.01-.43,1.81-.43h1.24v-.08c0-.38-.13-.67-.4-.88s-.64-.31-1.12-.31c-.31,0-.61.03-.9.1-.29.07-.57.17-.84.31v-.76c.32-.12.63-.2.94-.26.3-.06.6-.09.89-.09.78,0,1.36.19,1.74.56.38.37.57.94.57,1.71h0Z"/>
      <path id="DejaVuSans-77" d="M577.09,62.69h.88l1.1,3.91,1.1-3.91h1.04l1.1,3.91,1.1-3.91h.88l-1.4,5.01h-1.04l-1.15-4.1-1.16,4.1h-1.04l-1.4-5.01h0Z"/>
      <path id="DejaVuSans-611" d="M588.06,65.18c-.71,0-1.21.08-1.48.23s-.41.41-.41.78c0,.29.1.52.31.7.21.17.49.26.84.26.49,0,.88-.16,1.18-.48s.44-.75.44-1.29v-.18h-.88v-.02ZM589.81,64.84v2.86h-.88v-.76c-.2.3-.45.53-.75.67s-.67.22-1.1.22c-.55,0-.99-.14-1.31-.43s-.49-.67-.49-1.16c0-.56.2-.99.61-1.27.4-.29,1.01-.43,1.81-.43h1.24v-.08c0-.38-.13-.67-.4-.88s-.64-.31-1.12-.31c-.31,0-.61.03-.9.1-.29.07-.57.17-.84.31v-.76c.32-.12.63-.2.94-.26.3-.06.6-.09.89-.09.78,0,1.36.19,1.74.56.38.37.57.94.57,1.71h0Z"/>
      <path id="DejaVuSans-72" d="M594.73,63.46c-.1-.05-.21-.09-.32-.12-.12-.03-.24-.04-.38-.04-.5,0-.88.15-1.15.45s-.4.74-.4,1.3v2.64h-.89v-5.01h.89v.78c.19-.3.43-.53.72-.68.3-.15.66-.22,1.08-.22.06,0,.13,0,.2,0,.07,0,.15.02.24.03v.86Z"/>
      <path id="DejaVuSans-65" d="M600.03,64.98v.4h-4.05c.04.57.22,1,.55,1.29.33.3.78.44,1.37.44.34,0,.67-.04.98-.12s.63-.19.95-.35v.78c-.32.12-.64.22-.97.29s-.67.1-1.01.1c-.86,0-1.53-.23-2.03-.7s-.75-1.09-.75-1.89.24-1.47.71-1.95c.47-.48,1.11-.72,1.92-.72.72,0,1.29.22,1.71.65.42.43.63,1.02.63,1.77h-.01ZM599.14,64.74c0-.45-.14-.81-.4-1.08s-.61-.4-1.05-.4c-.49,0-.88.13-1.18.39s-.47.62-.51,1.1h3.14Z"/>
    </g>
  </g>
  <g id="patch_19">
    <path class="st2" d="M515.23,67.48h19.61v-6.41h-19.61v6.41Z"/>
  </g>
  <g id="text_16">
    <g>
      <path id="DejaVuSans-721" d="M545.89,48.29c-.1-.05-.21-.09-.32-.12-.12-.03-.24-.04-.38-.04-.5,0-.88.15-1.15.45s-.4.74-.4,1.3v2.64h-.89v-5.01h.89v.78c.19-.3.43-.53.72-.68.3-.15.66-.22,1.08-.22.06,0,.13,0,.2,0,.07,0,.15.02.24.03v.86Z"/>
      <path id="DejaVuSans-612" d="M549.25,50.01c-.71,0-1.21.08-1.48.23s-.41.41-.41.78c0,.29.1.52.31.7.21.17.49.26.84.26.49,0,.88-.16,1.18-.48s.44-.75.44-1.29v-.18h-.88v-.02ZM551.01,49.67v2.86h-.88v-.76c-.2.3-.45.53-.75.67s-.67.22-1.1.22c-.55,0-.99-.14-1.31-.43s-.49-.67-.49-1.16c0-.56.2-.99.61-1.27.4-.29,1.01-.43,1.81-.43h1.24v-.08c0-.38-.13-.67-.4-.88s-.64-.31-1.12-.31c-.31,0-.61.03-.9.1-.29.07-.57.17-.84.31v-.76c.32-.12.63-.2.94-.26.3-.06.6-.09.89-.09.78,0,1.36.19,1.74.56.38.37.57.94.57,1.71h0Z"/>
      <path id="DejaVuSans-6e" d="M557.28,49.51v3.02h-.88v-3c0-.47-.1-.83-.3-1.06-.2-.24-.49-.35-.89-.35-.48,0-.85.14-1.13.42-.27.28-.41.67-.41,1.16v2.83h-.89v-5.01h.89v.78c.21-.3.46-.53.74-.68.29-.15.62-.22.99-.22.62,0,1.08.18,1.4.53.32.36.47.88.47,1.57h.01Z"/>
      <path id="DejaVuSans-64" d="M562.57,48.28v-2.71h.88v6.96h-.88v-.75c-.18.3-.42.52-.7.66-.28.14-.62.22-1.02.22-.65,0-1.18-.24-1.58-.72-.41-.48-.61-1.12-.61-1.91s.2-1.42.61-1.9c.41-.48.94-.72,1.58-.72.4,0,.74.07,1.02.22.28.14.52.36.7.66h0ZM559.57,50.03c0,.6.13,1.08.4,1.42s.63.52,1.1.52.83-.17,1.1-.52c.27-.34.4-.82.4-1.42s-.13-1.08-.4-1.42c-.27-.34-.63-.52-1.1-.52s-.83.17-1.1.52-.4.82-.4,1.42Z"/>
      <path id="DejaVuSans-6f1" d="M567.34,48.1c-.47,0-.85.17-1.12.52s-.41.82-.41,1.41.14,1.07.41,1.41c.27.34.65.52,1.12.52s.84-.17,1.12-.52c.27-.35.41-.82.41-1.41s-.14-1.06-.41-1.41c-.27-.35-.65-.52-1.12-.52ZM567.34,47.4c.77,0,1.37.23,1.8.7.44.46.66,1.11.66,1.93s-.22,1.46-.66,1.93-1.04.7-1.8.7-1.37-.23-1.81-.7c-.44-.47-.65-1.11-.65-1.93s.22-1.47.65-1.93c.44-.47,1.04-.7,1.81-.7Z"/>
      <path id="DejaVuSans-6d" d="M575.44,48.49c.22-.37.48-.64.79-.82s.67-.26,1.08-.26c.56,0,.99.18,1.29.55.3.36.46.88.46,1.56v3.02h-.89v-3c0-.48-.09-.84-.27-1.07s-.46-.35-.83-.35c-.46,0-.82.14-1.08.42s-.4.67-.4,1.16v2.83h-.89v-3c0-.48-.09-.84-.27-1.07s-.46-.35-.84-.35c-.45,0-.81.14-1.07.43-.26.28-.4.67-.4,1.16v2.83h-.89v-5.01h.89v.78c.2-.31.44-.53.72-.68s.61-.22,1-.22.72.09.99.28c.27.18.47.45.61.8h0Z"/>
      <path id="DejaVuSans-201" d="M579.89,52.53"/>
      <path id="DejaVuSans-741" d="M584.8,46.1v1.42h1.81v.64h-1.81v2.72c0,.41.06.67.18.79s.36.17.73.17h.9v.69h-.9c-.68,0-1.15-.12-1.41-.35-.26-.24-.39-.67-.39-1.29v-2.72h-.65v-.64h.65v-1.42h.89Z"/>
      <path id="DejaVuSans-722" d="M590.88,48.29c-.1-.05-.21-.09-.32-.12-.12-.03-.24-.04-.38-.04-.5,0-.88.15-1.15.45s-.4.74-.4,1.3v2.64h-.89v-5.01h.89v.78c.19-.3.43-.53.72-.68.3-.15.66-.22,1.08-.22.06,0,.13,0,.2,0,.07,0,.15.02.24.03v.86Z"/>
      <path id="DejaVuSans-691" d="M591.81,47.52h.88v5.01h-.88v-5.01ZM591.81,45.57h.88v1.04h-.88v-1.04Z"/>
      <path id="DejaVuSans-613" d="M596.97,50.01c-.71,0-1.21.08-1.48.23s-.41.41-.41.78c0,.29.1.52.31.7.21.17.49.26.84.26.49,0,.88-.16,1.18-.48s.44-.75.44-1.29v-.18h-.88v-.02ZM598.73,49.67v2.86h-.88v-.76c-.2.3-.45.53-.75.67s-.67.22-1.1.22c-.55,0-.99-.14-1.31-.43s-.49-.67-.49-1.16c0-.56.2-.99.61-1.27.4-.29,1.01-.43,1.81-.43h1.24v-.08c0-.38-.13-.67-.4-.88s-.64-.31-1.12-.31c-.31,0-.61.03-.9.1-.29.07-.57.17-.84.31v-.76c.32-.12.63-.2.94-.26.3-.06.6-.09.89-.09.78,0,1.36.19,1.74.56.38.37.57.94.57,1.71h0Z"/>
      <path id="DejaVuSans-6c2" d="M600.54,45.57h.88v6.96h-.88v-6.96Z"/>
    </g>
  </g>
  <g class="st20">
    <text class="st19" transform="translate(88.8 307.49) rotate(-30)"><tspan x="0" y="0">Logistic</tspan></text>
  </g>
  <g class="st20">
    <text class="st19" transform="translate(166.77 321.04) rotate(-30)"><tspan x="0" y="0">Linear SVM</tspan></text>
  </g>
  <g class="st20">
    <text class="st19" transform="translate(267.2 302.16) rotate(-30)"><tspan x="0" y="0">Ridge</tspan></text>
  </g>
  <g class="st20">
    <text class="st19" transform="translate(356.01 302.16) rotate(-30)"><tspan x="0" y="0">SVM</tspan></text>
  </g>
  <g class="st20">
    <text class="st19" transform="translate(445.07 302.16) rotate(-30)"><tspan x="0" y="0">MLP</tspan></text>
  </g>
  <g class="st20">
    <text class="st22" transform="translate(45.28 280.53)"><tspan x="0" y="0">0</tspan></text>
  </g>
  <g class="st20">
    <text class="st22" transform="translate(35.77 231)"><tspan x="0" y="0">0.2</tspan></text>
  </g>
  <g class="st20">
    <text class="st22" transform="translate(36.36 183.32)"><tspan x="0" y="0">0.4</tspan></text>
  </g>
  <g class="st20">
    <text class="st22" transform="translate(36.95 133.22)"><tspan x="0" y="0">0.6</tspan></text>
  </g>
  <g class="st20">
    <text class="st22" transform="translate(37.54 83.5)"><tspan x="0" y="0">0.8</tspan></text>
  </g>
  <g class="st20">
    <text class="st22" transform="translate(37.54 34.94)"><tspan x="0" y="0">1.0</tspan></text>
  </g>
  <g class="st20">
    <text class="st21" transform="translate(21.52 201.16) rotate(-90)"><tspan x="0" y="0">Test Accuracy</tspan></text>
  </g>
  <g id="patch_181">
    <path class="st6" d="M515.23,53.18h19.61v-6.41h-19.61v6.41Z"/>
  </g>
  <g class="st20">
    <text class="st21" transform="translate(232.99 335.22)"><tspan x="0" y="0">Model Type</tspan></text>
  </g>
</svg>